<svg xmlns="http://www.w3.org/2000/svg" width="166" height="157"><path fill="#00bd3d" d="M166 152.505a4.494 4.494 0 01-4.497 4.495 4.502 4.502 0 01-4.503-4.495 4.507 4.507 0 014.503-4.505 4.5 4.5 0 014.497 4.505M121.5 148c2.493 0 4.5 2.017 4.5 4.505a4.492 4.492 0 01-4.5 4.495 4.499 4.499 0 01-4.5-4.495 4.504 4.504 0 014.5-4.505m-37.995 0A4.5 4.5 0 0188 152.505 4.494 4.494 0 0183.505 157 4.496 4.496 0 0179 152.505 4.502 4.502 0 0183.505 148m-39.002 0A4.503 4.503 0 0149 152.505 4.497 4.497 0 0144.503 157 4.498 4.498 0 0140 152.505 4.504 4.504 0 0144.503 148M4.5 148c2.483 0 4.5 2.017 4.5 4.505A4.499 4.499 0 014.5 157a4.499 4.499 0 01-4.5-4.495A4.504 4.504 0 014.5 148m157.003-29a4.495 4.495 0 014.497 4.5c0 2.488-2.01 4.5-4.497 4.5a4.503 4.503 0 01-4.503-4.5c0-2.488 2.021-4.5 4.503-4.5m-40.003 0c2.493 0 4.5 2.012 4.5 4.5s-2.007 4.5-4.5 4.5a4.5 4.5 0 110-9m-37.995 0A4.495 4.495 0 0188 123.5c0 2.488-2.012 4.5-4.495 4.5A4.498 4.498 0 0179 123.5c0-2.488 2.012-4.5 4.505-4.5m-39.002 0A4.498 4.498 0 0149 123.5a4.5 4.5 0 11-4.497-4.5M4.5 119a4.5 4.5 0 110 9 4.5 4.5 0 010-9m157.003-29A4.497 4.497 0 01166 94.497 4.498 4.498 0 01161.503 99 4.506 4.506 0 01157 94.497 4.505 4.505 0 01161.503 90M121.5 90c2.493 0 4.5 2.016 4.5 4.497A4.496 4.496 0 01121.5 99a4.503 4.503 0 01-4.5-4.503A4.502 4.502 0 01121.5 90m-37.995 0A4.497 4.497 0 0188 94.497 4.5 4.5 0 1183.505 90m-39.002 0a4.5 4.5 0 11-.006 9 4.5 4.5 0 01.006-9M4.5 90C6.983 90 9 92.016 9 94.497A4.503 4.503 0 014.5 99 4.503 4.503 0 010 94.497 4.502 4.502 0 014.5 90m157.003-32A4.495 4.495 0 01166 62.5c0 2.483-2.01 4.5-4.497 4.5A4.506 4.506 0 01157 62.5c0-2.488 2.021-4.5 4.503-4.5M121.5 58c2.493 0 4.5 2.012 4.5 4.5 0 2.483-2.007 4.5-4.5 4.5a4.5 4.5 0 110-9m-37.995 0A4.495 4.495 0 0188 62.5a4.5 4.5 0 11-4.495-4.5m-39.002 0A4.498 4.498 0 0149 62.5c0 2.483-2.016 4.5-4.497 4.5a4.5 4.5 0 110-9M4.5 58a4.5 4.5 0 110 9 4.5 4.5 0 010-9m157.003-29A4.498 4.498 0 01166 33.503 4.497 4.497 0 01161.503 38 4.505 4.505 0 01157 33.503 4.506 4.506 0 01161.503 29M121.5 29c2.493 0 4.5 2.016 4.5 4.503A4.495 4.495 0 01121.5 38a4.502 4.502 0 01-4.5-4.497A4.503 4.503 0 01121.5 29m-37.995 0A4.498 4.498 0 0188 33.503 4.497 4.497 0 0183.505 38a4.5 4.5 0 110-9m-39.002 0A4.5 4.5 0 1140 33.503 4.503 4.503 0 0144.503 29M4.5 29C6.983 29 9 31.016 9 33.503A4.502 4.502 0 014.5 38 4.502 4.502 0 010 33.503 4.503 4.503 0 014.5 29M161.503 9A4.503 4.503 0 01157 4.5c0-2.483 2.021-4.5 4.503-4.5A4.498 4.498 0 01166 4.5c0 2.488-2.01 4.5-4.497 4.5M121.5 0c2.493 0 4.5 2.017 4.5 4.5 0 2.488-2.007 4.5-4.5 4.5a4.5 4.5 0 110-9M83.505 0A4.499 4.499 0 0188 4.5C88 6.988 85.988 9 83.505 9a4.5 4.5 0 010-9M44.503 0A4.502 4.502 0 0149 4.5 4.5 4.5 0 1144.503 0M4.5 0a4.5 4.5 0 110 9 4.5 4.5 0 010-9"/></svg>