<svg width="196" height="267" xmlns="http://www.w3.org/2000/svg"><g id="Main-Page" stroke="none" stroke-width="1" fill="none" fill-rule="evenodd"><path d="M197 209.1h-.117c-16.635 0-24.756 5.685-41.413 25.12-20.24 23.615-32.617 32.28-56.98 32.28-24.354 0-36.73-8.664-56.967-32.28C24.869 214.787 16.746 209.1.11 209.1H0v-20.5h.111c24.363 0 36.742 8.666 56.983 32.286C73.744 240.316 81.864 246 98.49 246c16.635 0 24.756-5.685 41.413-25.12 20.24-23.615 32.617-32.28 56.98-32.28H197v20.5zm0-94.3h-.117c-16.635 0-24.756 5.685-41.413 25.12-20.24 23.615-32.617 32.28-56.98 32.28-24.354 0-36.73-8.664-56.967-32.28C24.869 120.487 16.746 114.8.11 114.8H0V94.3h.111c24.363 0 36.742 8.666 56.983 32.286 16.65 19.43 24.77 25.114 41.397 25.114 16.635 0 24.756-5.685 41.413-25.12 20.24-23.615 32.617-32.28 56.98-32.28H197v20.5zm0-94.3h-.117c-16.635 0-24.756 5.685-41.413 25.12-20.24 23.615-32.617 32.28-56.98 32.28-24.354 0-36.73-8.664-56.967-32.28C24.869 26.187 16.746 20.5.11 20.5H0V0h.111c24.363 0 36.742 8.666 56.983 32.286C73.744 51.716 81.864 57.4 98.49 57.4c16.635 0 24.756-5.685 41.413-25.12C160.144 8.665 172.521 0 196.884 0H197v20.5z" id="Combined-Shape" fill="#FFD304" fill-rule="nonzero"/></g></svg>